<svg width="90" height="28" viewBox="0 0 90 28" fill="none" xmlns="http://www.w3.org/2000/svg">
<path d="M38.9967 27.9961C36.8435 26.4963 34.2242 25.8332 31.8389 25.9288C29.43 26.0224 28.3465 27.805 28.3465 27.805C27.2591 25.9288 25.1137 24.7742 21.7924 24.8015C16.4319 24.8639 11.1108 27.3213 6.89477 27.3213C2.67874 27.3213 -0.0939212 24.8015 0.00243383 20.3294C0.171547 12.4833 6.85544 5.41342 11.8521 2.22855C14.7192 0.401109 17.1261 -0.143028 18.7012 0.0305498C19.8476 0.159271 21.2261 1.47183 20.3569 3.41044C19.0807 6.2501 17.3149 6.01021 17.3758 4.65474C17.4132 3.77515 18.0031 3.21931 18.4495 2.91506C18.7346 2.72393 19.2302 2.66737 19.4878 2.66152C19.7395 2.45089 19.9342 0.898439 17.8753 1.40942C15.8184 1.9243 13.3427 3.92728 10.983 6.50754C8.61933 9.09366 4.948 13.9909 4.03951 19.13C3.61673 21.5152 3.90186 25.8547 9.59271 25.802C14.4183 25.763 21.5388 22.6113 28.0791 22.6678C30.6178 22.6893 32.8261 23.368 34.5526 24.4231C36.2477 25.4626 38.279 26.9702 38.9948 28M40.5423 13.7764H41.5295C41.5295 13.7764 36.576 20.8814 33.7719 20.5615C32.2125 20.384 32.6747 18.4669 32.6747 18.4669C32.6747 18.4669 30.4723 21.0198 28.4626 20.5088C26.6318 20.0447 27.8117 17.0275 27.8117 17.0275C27.6032 17.1114 23.6448 21.5406 20.8643 20.4796C17.9579 19.3679 19.4622 15.6604 20.0187 14.5467C20.4848 13.6067 21.0059 12.692 21.0059 12.692C21.0059 12.692 20.5556 12.8188 20.2822 12.8812C20.003 12.9455 19.5822 13.0255 19.5822 13.0255C19.5822 13.0255 18.2057 15.2449 17.3621 16.3547C16.5244 17.4586 12.9474 21.2714 10.8414 20.5108C8.73535 19.7521 9.25252 16.8306 10.4402 14.5058C12.3575 10.7358 16.9098 6.10968 19.653 6.80204C22.4237 7.5022 20.1328 11.9626 20.1328 11.9626C20.1328 11.9626 20.6834 12.0367 22.0009 11.1395C23.9063 9.85233 26.4155 6.38857 29.1351 6.79619C30.4074 6.98342 31.601 8.28428 29.9747 10.7495C29.4536 11.5433 28.5805 12.2512 27.91 11.5511C27.4931 11.12 27.853 10.3243 28.2935 9.78212C28.9089 9.00979 29.7604 9.11316 29.7604 9.11316C29.7604 9.11316 30.2088 8.0912 29.0702 8.1107C28.144 8.12825 25.8059 10.2677 24.4825 12.4287C23.2712 14.4122 21.4365 17.7921 23.281 18.5273C24.9702 19.2041 28.1833 15.4127 29.6759 13.4312C31.1644 11.4477 34.5565 6.94441 37.4 6.76108C38.3753 6.69477 38.9653 7.58216 38.9653 7.58216L39.2937 7.06533H42.1351C42.1351 7.06533 36.7766 15.9471 36.3578 16.618C36.0274 17.1465 35.5909 18.3284 36.8022 17.6633C38.0174 16.9983 40.5404 13.7803 40.5404 13.7803M18.4731 12.8792C18.4239 12.8617 17.7082 12.6569 17.0101 12.2142C16.312 11.7695 15.9895 11.1122 15.962 11.0654C15.9384 11.0206 15.9089 11.0557 15.8794 11.0927C15.8519 11.1337 15.7024 11.3248 14.6877 12.7993C13.6711 14.2776 12.1727 17.3045 13.5806 17.8194C14.4813 18.1509 15.9974 16.577 16.8174 15.5394C17.5764 14.576 18.481 13.0938 18.5223 13.004C18.5577 12.9163 18.5223 12.8948 18.4731 12.8773M19.6018 8.15556C18.8546 7.59777 16.955 8.90253 16.9491 10.2443C16.9354 11.6154 18.6619 12.0055 18.8821 12.0152C18.8821 12.0152 19.0788 12.0679 19.1555 11.9041C19.2046 11.8046 19.4367 11.3736 19.7002 10.6949C19.9597 10.0103 20.296 8.67824 19.5999 8.15361M34.0924 15.5453C35.2408 13.985 38.4068 8.51441 38.4068 8.51441C38.4068 8.51441 38.3557 8.1302 37.986 8.11265C37.5475 8.0912 36.8219 8.23942 35.3647 10.0435C33.9076 11.8495 32.7848 13.2888 31.9648 14.7788C31.0641 16.4112 30.6689 17.5561 31.19 17.872C31.3316 17.9578 31.5538 17.9676 31.7327 17.9266C32.069 17.8428 32.5095 17.5073 33.1151 16.813C33.3983 16.4912 33.7169 16.0621 34.0964 15.5472M46.8762 7.07508H44.1763L42.6543 9.52468H45.3522L46.8762 7.07508ZM86.7436 2.67322C84.7536 3.94873 81.9809 5.10332 79.3243 4.84782C78.6537 5.54019 77.936 6.33591 77.2084 7.2077C81.8216 8.1107 85.8528 5.27689 88.0021 2.86241C89.3432 1.35481 90 0.0110467 90 0.0110467C90 0.0110467 88.7198 1.40942 86.7416 2.67127M78.8425 23.446C78.4571 24.0506 78.0264 25.215 79.2889 24.4914C80.8227 23.6079 83.0133 20.3119 83.0133 20.3119H84.0024C84.0024 20.3119 82.7006 22.3597 80.9997 24.23C79.4363 25.9405 77.5387 27.5007 76.1996 27.3466C74.6343 27.1653 75.122 25.1272 75.122 25.1272C75.122 25.1272 72.8783 27.4929 71.3347 27.3232C69.2463 27.0951 69.8815 24.5323 69.8815 24.5323C69.8815 24.5323 67.5158 27.4149 65.9073 27.3232C63.3824 27.1809 64.0117 24.1208 64.7157 21.9833C65.0932 20.8345 65.4432 19.9335 65.4432 19.9335C65.4432 19.9335 65.1896 19.9998 64.6547 20.0759C64.3715 20.1149 63.8583 20.1441 63.8583 20.1441C63.8583 20.1441 62.8062 21.9872 61.9666 23.093C61.123 24.2027 57.552 28.0137 55.4439 27.253C53.4991 26.547 54.1402 23.5903 55.2729 21.2422C56.9247 17.8213 61.5713 12.8948 64.2555 13.5404C67.0321 14.2113 64.3184 19.2431 64.3184 19.2431C64.3184 19.2431 64.3204 19.2626 64.3499 19.2723C64.4069 19.2938 64.5505 19.3094 64.8828 19.247C65.4196 19.1456 65.9014 18.9447 65.9014 18.9447C65.9014 18.9447 68.6937 13.1406 71.7791 9.33745C74.8644 5.54019 81.0213 -1.00117 83.44 0.578588C84.0319 0.9667 83.7625 2.30657 82.9661 3.93508C82.6161 4.04235 82.2503 4.14376 81.8747 4.21787C82.4076 3.26027 82.7616 2.45284 82.8658 1.88725C83.2256 -0.0728168 78.6104 4.0638 75.3088 8.51441C72.0131 12.967 70.0309 17.0002 70.0309 17.0002C70.0309 17.0002 70.6995 16.6277 71.7358 15.7988C72.8173 14.9329 74.3059 13.5774 75.9263 11.9138C77.0157 10.8021 78.2958 9.39596 79.4934 7.82985C79.8493 7.81035 80.1993 7.77719 80.5415 7.72259C79.2102 9.50907 77.8003 11.1395 76.6067 12.339C75.297 13.6593 73.8694 15.0792 72.6286 16.1148C70.6582 17.755 69.1382 18.6912 69.1382 18.6912C69.1382 18.6912 66.2436 24.4582 67.8147 24.8327C68.7429 25.0492 70.5618 22.2641 70.5618 22.2641C70.5618 22.2641 72.9393 18.6599 74.3728 17.0412C76.3294 14.8315 78.0107 13.5599 79.6939 13.5306C80.6732 13.515 81.2514 14.5506 81.2514 14.5506L81.7135 13.8407H84.5609C84.5609 13.8407 79.2594 22.7654 78.8366 23.4402M62.8672 19.9257C62.8121 19.9081 62.2006 19.6254 61.5595 19.1007C60.9204 18.5722 60.598 17.9676 60.5744 17.9227C60.5508 17.8779 60.5193 17.911 60.4937 17.952C60.4623 17.989 60.3482 18.0846 59.3335 19.5668C58.3228 21.0432 56.7693 24.0916 58.1792 24.6065C59.0779 24.938 60.5822 23.3739 61.4003 22.3343C62.1593 21.367 62.8692 20.1422 62.9085 20.0544C62.9518 19.9667 62.9124 19.9433 62.8672 19.9277M64.2988 17.4332C64.5623 16.7525 64.8966 15.4205 64.1965 14.8958C63.4532 14.338 61.5556 15.6467 61.5438 16.9807C61.534 18.3557 62.8849 18.9739 63.2074 19.0578C63.3942 19.1085 63.4552 19.1027 63.5476 18.9544C63.6046 18.8569 64.0372 18.1139 64.2988 17.4332ZM80.6123 15.5492C80.6713 15.4497 80.6949 15.36 80.6949 15.36C80.6949 15.36 80.6418 14.9739 80.274 14.9602C79.8336 14.9407 79.2377 15.0246 77.6685 16.7467C76.1032 18.4649 75.1535 19.9569 74.3295 21.4469C73.4309 23.0794 73.073 24.2905 73.5882 24.6026C73.7337 24.6903 73.9559 24.7001 74.1329 24.6572C74.4809 24.5733 74.8782 24.2495 75.4838 23.5572C75.767 23.2354 76.0816 22.7751 76.4513 22.2641C77.4856 20.8599 80.0931 16.4444 80.6123 15.5511M86.7377 2.66737C84.7477 3.94288 81.975 5.09747 79.3184 4.84197C78.6478 5.53434 77.9301 6.33006 77.2025 7.20185C81.8157 8.10485 85.8469 5.27104 87.9962 2.85655C89.3373 1.34896 89.9941 0.00519575 89.9941 0.00519575C89.9941 0.00519575 88.714 1.40357 86.7357 2.66542M73.7809 5.98486C71.6021 4.87513 70.0132 3.52161 68.3496 2.67517C66.7647 1.8697 65.7441 1.53814 64.4659 1.70782C64.2535 1.73317 63.937 1.83459 63.937 1.83459C63.937 1.83459 64.5977 4.06575 61.9784 7.8162C59.3217 11.6154 56.9168 11.5979 56.2305 10.5427C55.5147 9.44276 56.437 7.19405 57.9846 5.19693C59.6029 3.10814 62.4464 1.36846 62.4464 1.36846C62.4464 1.36846 61.5379 0.820427 59.308 2.07253C57.139 3.29147 53.393 6.19354 49.9301 11.0947C46.4652 15.99 45.7789 18.6853 45.2775 20.8033C44.7741 22.9272 45.2342 25.1954 47.6058 25.1954C49.9773 25.1954 52.7381 21.6069 53.5168 20.3587C54.9563 18.0319 55.9041 14.4726 53.9377 14.9641C52.9643 15.204 52.1797 16.2728 51.6841 17.2986C51.1748 18.3518 50.9723 19.3582 50.9723 19.3582C50.9723 19.3582 50.1542 19.6488 49.0511 20.4679C47.9518 21.2831 47.2341 22.0671 47.2341 22.0671C47.2341 22.0671 47.24 20.3743 48.6008 17.6263C49.9635 14.8841 52.4648 13.6281 53.8787 13.5131C55.1568 13.4097 56.8185 14.4824 55.4105 18.4513C54.0045 22.4202 49.8573 27.2335 45.4938 27.2959C41.4705 27.3544 38.8315 22.2583 44.43 13.3629C50.6282 3.53526 57.9098 0.518128 60.2735 0.180724C62.6371 -0.158631 63.4001 0.875036 63.4001 0.875036C63.4001 0.875036 65.3783 -0.0299099 67.8895 0.135867C70.7762 0.330898 73.0061 2.35337 75.9479 3.7732C75.181 4.51237 74.4514 5.27299 73.7907 5.98681M63.0521 2.12909C63.0521 2.12909 61.3629 2.80195 59.4004 4.94339C57.434 7.09849 56.2954 9.50127 57.1429 10.1429C57.4654 10.3867 58.2127 10.4277 59.5793 9.21458C60.6373 8.26867 61.7149 7.03023 62.4543 5.25739C63.3274 3.13155 63.0521 2.15834 63.0521 2.13104M84.1577 25.0511C83.8883 24.7839 83.5619 24.6455 83.1785 24.6455C82.795 24.6455 82.4686 24.782 82.2031 25.0511C81.9298 25.3144 81.7921 25.644 81.7921 26.0165C81.7921 26.389 81.9298 26.7284 82.1972 26.9917C82.4666 27.2628 82.795 27.3974 83.1785 27.3974C83.5619 27.3974 83.8883 27.2628 84.1577 26.9917C84.4291 26.7245 84.5609 26.4007 84.5609 26.0165C84.5609 25.6323 84.4291 25.3144 84.1577 25.0511ZM84.0221 26.8688C83.792 27.0873 83.5108 27.2101 83.1785 27.2101C82.8461 27.2101 82.563 27.0873 82.3349 26.8688C82.1048 26.6289 81.9868 26.3481 81.9868 26.0165C81.9868 25.685 82.1048 25.4139 82.3349 25.1837C82.5689 24.9517 82.854 24.8385 83.1785 24.8385C83.5029 24.8385 83.7822 24.9497 84.0221 25.1837C84.2561 25.4139 84.3681 25.6928 84.3681 26.0165C84.3681 26.3403 84.2561 26.6309 84.0221 26.8688ZM83.7802 26.6757C83.7802 26.6367 83.7763 26.5997 83.7763 26.5685V26.4592C83.7763 26.3812 83.7428 26.3032 83.6937 26.2233C83.6425 26.1433 83.5521 26.0945 83.4341 26.0809C83.5265 26.0653 83.6052 26.0341 83.6524 25.999C83.7546 25.9385 83.8057 25.8371 83.8057 25.7025C83.8057 25.5153 83.7271 25.3866 83.5678 25.3203C83.4833 25.2852 83.3436 25.2696 83.149 25.2696H82.622V26.7713H82.8894V26.1784H83.1037C83.2394 26.1784 83.3436 26.194 83.3948 26.233C83.499 26.2857 83.5403 26.4007 83.5403 26.5704V26.7459C83.5416 26.7524 83.5462 26.757 83.554 26.7596V26.7713H83.8077L83.7979 26.7537C83.7861 26.744 83.7861 26.7186 83.7841 26.6738M83.3889 25.96C83.3318 25.9795 83.2493 25.9912 83.1332 25.9912H82.8933V25.4451H83.1214C83.263 25.4451 83.3849 25.4665 83.442 25.5055C83.5108 25.5387 83.5442 25.6167 83.5442 25.7259C83.5442 25.8351 83.4872 25.9151 83.3908 25.96" fill="#E30613"/>
</svg>
